{
  "accessors": [
    {
      "bufferView": 2,
      "componentType": 5126,
      "count": 10086,
      "max": [
        0.03956000134348869,
        0.033348001539707184,
        0.1890150010585785
      ],
      "min": [
        -0.04148099943995476,
        -0.033348001539707184,
        0.0001140000022132881
      ],
      "type": "VEC3"
    },
    {
      "bufferView": 2,
      "byteOffset": 121032,
      "componentType": 5126,
      "count": 10086,
      "max": [
        1.0,
        0.9999586343765259,
        1.0
      ],
      "min": [
        -1.0,
        -0.9999586343765259,
        -1.0
      ],
      "type": "VEC3"
    },
    {
      "bufferView": 3,
      "componentType": 5126,
      "count": 10086,
      "max": [
        1.0,
        1.0,
        0.9999976754188538,
        1.0
      ],
      "min": [
        -1.0,
        -1.0,
        -0.9998447895050049,
        -1.0
      ],
      "type": "VEC4"
    },
    {
      "bufferView": 1,
      "componentType": 5126,
      "count": 10086,
      "max": [
        0.9987789988517761,
        0.9969059824943542
      ],
      "min": [
        0.0012209999840706587,
        0.0012209999840706587
      ],
      "type": "VEC2"
    },
    {
      "bufferView": 0,
      "componentType": 5125,
      "count": 48012,
      "type": "SCALAR"
    }
  ],
  "asset": {
    "extras": {
      "author": "shuvalov.di (https://sketchfab.com/shuvalov.di)",
      "license": "CC-BY-NC-SA-4.0 (http://creativecommons.org/licenses/by-nc-sa/4.0/)",
      "source": "https://sketchfab.com/3d-models/lantern-6a440d28424c451098a6ebbe51c848c7",
      "title": "Lantern"
    },
    "generator": "Sketchfab-14.63.0",
    "version": "2.0"
  },
  "bufferViews": [
    {
      "buffer": 0,
      "byteLength": 192048,
      "name": "floatBufferViews",
      "target": 34963
    },
    {
      "buffer": 0,
      "byteLength": 80688,
      "byteOffset": 192048,
      "byteStride": 8,
      "name": "floatBufferViews",
      "target": 34962
    },
    {
      "buffer": 0,
      "byteLength": 242064,
      "byteOffset": 272736,
      "byteStride": 12,
      "name": "floatBufferViews",
      "target": 34962
    },
    {
      "buffer": 0,
      "byteLength": 161376,
      "byteOffset": 514800,
      "byteStride": 16,
      "name": "floatBufferViews",
      "target": 34962
    }
  ],
  "buffers": [
    {
      "byteLength": 676176,
      "uri": "scene.bin"
    }
  ],
  "images": [
    {
      "uri": "textures/Basic_baseColor.png"
    },
    {
      "uri": "textures/Basic_metallicRoughness.png"
    },
    {
      "uri": "textures/Basic_normal.png"
    }
  ],
  "materials": [
    {
      "alphaMode": "BLEND",
      "doubleSided": true,
      "name": "Basic",
      "normalTexture": {
        "index": 2
      },
      "occlusionTexture": {
        "index": 1
      },
      "pbrMetallicRoughness": {
        "baseColorTexture": {
          "index": 0
        },
        "metallicRoughnessTexture": {
          "index": 1
        }
      }
    }
  ],
  "meshes": [
    {
      "name": "Object_0",
      "primitives": [
        {
          "attributes": {
            "NORMAL": 1,
            "POSITION": 0,
            "TANGENT": 2,
            "TEXCOORD_0": 3
          },
          "indices": 4,
          "material": 0,
          "mode": 4
        }
      ]
    }
  ],
  "nodes": [
    {
      "children": [
        1
      ],
      "matrix": [
        1.0,
        0.0,
        0.0,
        0.0,
        0.0,
        2.220446049250313e-16,
        -1.0,
        0.0,
        0.0,
        1.0,
        2.220446049250313e-16,
        0.0,
        0.0,
        0.0,
        0.0,
        1.0
      ],
      "name": "Sketchfab_model"
    },
    {
      "children": [
        2
      ],
      "name": "Lantern.obj.cleaner.materialmerger.gles"
    },
    {
      "mesh": 0,
      "name": "Object_2"
    }
  ],
  "samplers": [
    {
      "magFilter": 9729,
      "minFilter": 9987,
      "wrapS": 10497,
      "wrapT": 10497
    }
  ],
  "scene": 0,
  "scenes": [
    {
      "name": "Sketchfab_Scene",
      "nodes": [
        0
      ]
    }
  ],
  "textures": [
    {
      "sampler": 0,
      "source": 0
    },
    {
      "sampler": 0,
      "source": 1
    },
    {
      "sampler": 0,
      "source": 2
    }
  ]
}
