{
  "accessors": [
    {
      "bufferView": 2,
      "componentType": 5126,
      "count": 65532,
      "max": [
        1.000007152557373,
        1.000008225440979,
        0.11358965933322906
      ],
      "min": [
        -1.0000022649765015,
        -1.0000165700912476,
        5.764786237705266e-06
      ],
      "type": "VEC3"
    },
    {
      "bufferView": 2,
      "byteOffset": 786384,
      "componentType": 5126,
      "count": 65532,
      "max": [
        0.9773187637329102,
        0.8753262758255005,
        1.0
      ],
      "min": [
        -0.9459066987037659,
        -0.9991189241409302,
        0.04184133559465408
      ],
      "type": "VEC3"
    },
    {
      "bufferView": 1,
      "componentType": 5126,
      "count": 65532,
      "max": [
        0.9999982118606567,
        0.9999997019767761
      ],
      "min": [
        2.8826718789787265e-06,
        0.0
      ],
      "type": "VEC2"
    },
    {
      "bufferView": 0,
      "componentType": 5125,
      "count": 331380,
      "type": "SCALAR"
    },
    {
      "bufferView": 2,
      "byteOffset": 1572768,
      "componentType": 5126,
      "count": 65532,
      "max": [
        1.0000096559524536,
        1.0000046491622925,
        0.13967232406139374
      ],
      "min": [
        -1.0000022649765015,
        -0.890625,
        0.0014571783831343055
      ],
      "type": "VEC3"
    },
    {
      "bufferView": 2,
      "byteOffset": 2359152,
      "componentType": 5126,
      "count": 65532,
      "max": [
        0.9308003783226013,
        0.8560126423835754,
        1.0
      ],
      "min": [
        -0.9245387315750122,
        -0.8100841045379639,
        0.287921667098999
      ],
      "type": "VEC3"
    },
    {
      "bufferView": 1,
      "byteOffset": 524256,
      "componentType": 5126,
      "count": 65532,
      "max": [
        0.999999463558197,
        0.9999978542327881
      ],
      "min": [
        2.8826718789787265e-06,
        0.054694999009370804
      ],
      "type": "VEC2"
    },
    {
      "bufferView": 0,
      "byteOffset": 1325520,
      "componentType": 5125,
      "count": 339741,
      "type": "SCALAR"
    },
    {
      "bufferView": 2,
      "byteOffset": 3145536,
      "componentType": 5126,
      "count": 65532,
      "max": [
        1.0000028610229492,
        0.32887306809425354,
        0.12998051941394806
      ],
      "min": [
        -1.0000044107437134,
        -0.9097845554351807,
        0.0015730388695374131
      ],
      "type": "VEC3"
    },
    {
      "bufferView": 2,
      "byteOffset": 3931920,
      "componentType": 5126,
      "count": 65532,
      "max": [
        0.9693720936775208,
        0.841651976108551,
        1.0
      ],
      "min": [
        -0.8195265531539917,
        -0.8135114312171936,
        0.24555514752864838
      ],
      "type": "VEC3"
    },
    {
      "bufferView": 1,
      "byteOffset": 1048512,
      "componentType": 5126,
      "count": 65532,
      "max": [
        0.9999960660934448,
        0.6644363403320313
      ],
      "min": [
        1.8264256596012274e-06,
        0.045115407556295395
      ],
      "type": "VEC2"
    },
    {
      "bufferView": 0,
      "byteOffset": 2684484,
      "componentType": 5125,
      "count": 338715,
      "type": "SCALAR"
    },
    {
      "bufferView": 2,
      "byteOffset": 4718304,
      "componentType": 5126,
      "count": 65532,
      "max": [
        1.00001060962677,
        1.0000088214874268,
        0.14125630259513855
      ],
      "min": [
        -0.9980449676513672,
        -0.90625,
        0.0006279327208176255
      ],
      "type": "VEC3"
    },
    {
      "bufferView": 2,
      "byteOffset": 5504688,
      "componentType": 5126,
      "count": 65532,
      "max": [
        0.8967112898826599,
        0.7918316721916199,
        1.0
      ],
      "min": [
        -0.9389421939849854,
        -0.9957629442214966,
        0.09149494767189026
      ],
      "type": "VEC3"
    },
    {
      "bufferView": 1,
      "byteOffset": 1572768,
      "componentType": 5126,
      "count": 65532,
      "max": [
        1.0,
        1.0
      ],
      "min": [
        0.0009814947843551636,
        0.046882566064596176
      ],
      "type": "VEC2"
    },
    {
      "bufferView": 0,
      "byteOffset": 4039344,
      "componentType": 5125,
      "count": 325215,
      "type": "SCALAR"
    },
    {
      "bufferView": 2,
      "byteOffset": 6291072,
      "componentType": 5126,
      "count": 65532,
      "max": [
        0.9980495572090149,
        0.5945767164230347,
        0.14186440408229828
      ],
      "min": [
        -0.80859375,
        -0.9335904121398926,
        0.002344670472666621
      ],
      "type": "VEC3"
    },
    {
      "bufferView": 2,
      "byteOffset": 7077456,
      "componentType": 5126,
      "count": 65532,
      "max": [
        0.9320046901702881,
        0.8962321877479553,
        1.0
      ],
      "min": [
        -0.9482807517051697,
        -0.9017135500907898,
        0.27751001715660095
      ],
      "type": "VEC3"
    },
    {
      "bufferView": 1,
      "byteOffset": 2097024,
      "componentType": 5126,
      "count": 65532,
      "max": [
        0.9990193843841553,
        0.7972864508628845
      ],
      "min": [
        0.09570624679327011,
        0.033212583512067795
      ],
      "type": "VEC2"
    },
    {
      "bufferView": 0,
      "byteOffset": 5340204,
      "componentType": 5125,
      "count": 322173,
      "type": "SCALAR"
    },
    {
      "bufferView": 2,
      "byteOffset": 7863840,
      "componentType": 5126,
      "count": 65532,
      "max": [
        1.0000057220458984,
        -0.158203125,
        0.14844724535942078
      ],
      "min": [
        -0.9866072535514832,
        -1.0000048875808716,
        0.002264146925881505
      ],
      "type": "VEC3"
    },
    {
      "bufferView": 2,
      "byteOffset": 8650224,
      "componentType": 5126,
      "count": 65532,
      "max": [
        0.857213020324707,
        0.8764536380767822,
        1.0
      ],
      "min": [
        -0.9155017137527466,
        -0.9989879727363586,
        -0.31339791417121887
      ],
      "type": "VEC3"
    },
    {
      "bufferView": 1,
      "byteOffset": 2621280,
      "componentType": 5126,
      "count": 65532,
      "max": [
        0.9999974370002747,
        0.4209013879299164
      ],
      "min": [
        0.006700341589748859,
        5.809335107187508e-06
      ],
      "type": "VEC2"
    },
    {
      "bufferView": 0,
      "byteOffset": 6628896,
      "componentType": 5125,
      "count": 330243,
      "type": "SCALAR"
    },
    {
      "bufferView": 2,
      "byteOffset": 9436608,
      "componentType": 5126,
      "count": 65532,
      "max": [
        0.9586319923400879,
        0.9872187972068787,
        0.12893709540367126
      ],
      "min": [
        -1.0000081062316895,
        -1.000002145767212,
        6.287185533437878e-05
      ],
      "type": "VEC3"
    },
    {
      "bufferView": 2,
      "byteOffset": 10222992,
      "componentType": 5126,
      "count": 65532,
      "max": [
        0.8743106722831726,
        0.8318211436271667,
        0.9999998807907104
      ],
      "min": [
        -0.9490422606468201,
        -0.8100841045379639,
        0.31400763988494873
      ],
      "type": "VEC3"
    },
    {
      "bufferView": 1,
      "byteOffset": 3145536,
      "componentType": 5126,
      "count": 65532,
      "max": [
        0.9793107509613037,
        0.9936050772666931
      ],
      "min": [
        0.0,
        7.217659003799781e-06
      ],
      "type": "VEC2"
    },
    {
      "bufferView": 0,
      "byteOffset": 7949868,
      "componentType": 5125,
      "count": 325131,
      "type": "SCALAR"
    },
    {
      "bufferView": 2,
      "byteOffset": 11009376,
      "componentType": 5126,
      "count": 65533,
      "max": [
        1.0000039339065552,
        1.0000052452087402,
        0.14513105154037476
      ],
      "min": [
        -0.771484375,
        -0.861328125,
        0.000979686388745904
      ],
      "type": "VEC3"
    },
    {
      "bufferView": 2,
      "byteOffset": 11795772,
      "componentType": 5126,
      "count": 65533,
      "max": [
        0.9736804962158203,
        0.9091842770576477,
        1.0
      ],
      "min": [
        -0.9482807517051697,
        -0.9658851027488708,
        0.22791644930839539
      ],
      "type": "VEC3"
    },
    {
      "bufferView": 1,
      "byteOffset": 3669792,
      "componentType": 5126,
      "count": 65533,
      "max": [
        0.9999966621398926,
        0.9999982714653015
      ],
      "min": [
        0.11426077038049698,
        0.06934326142072678
      ],
      "type": "VEC2"
    },
    {
      "bufferView": 0,
      "byteOffset": 9250392,
      "componentType": 5125,
      "count": 322959,
      "type": "SCALAR"
    },
    {
      "bufferView": 2,
      "byteOffset": 12582168,
      "componentType": 5126,
      "count": 65532,
      "max": [
        1.0000053644180298,
        1.0,
        0.14387880265712738
      ],
      "min": [
        -1.0000051259994507,
        -1.0000101327896118,
        0.00010220234253210947
      ],
      "type": "VEC3"
    },
    {
      "bufferView": 2,
      "byteOffset": 13368552,
      "componentType": 5126,
      "count": 65532,
      "max": [
        0.9758874773979187,
        0.8962321877479553,
        1.0
      ],
      "min": [
        -0.9346892237663269,
        -0.9977339506149292,
        0.06705070286989212
      ],
      "type": "VEC3"
    },
    {
      "bufferView": 1,
      "byteOffset": 4194056,
      "componentType": 5126,
      "count": 65532,
      "max": [
        0.9999972581863403,
        0.9999955296516418
      ],
      "min": [
        1.4523384379572235e-06,
        3.234743417124264e-06
      ],
      "type": "VEC2"
    },
    {
      "bufferView": 0,
      "byteOffset": 10542228,
      "componentType": 5125,
      "count": 277665,
      "type": "SCALAR"
    },
    {
      "bufferView": 2,
      "byteOffset": 14154936,
      "componentType": 5126,
      "count": 65532,
      "max": [
        1.0000028610229492,
        1.000008225440979,
        0.14704100787639618
      ],
      "min": [
        -1.000003695487976,
        -1.0000052452087402,
        5.764786237705266e-06
      ],
      "type": "VEC3"
    },
    {
      "bufferView": 2,
      "byteOffset": 14941320,
      "componentType": 5126,
      "count": 65532,
      "max": [
        0.9765648245811462,
        0.8881375789642334,
        1.0
      ],
      "min": [
        -0.9482807517051697,
        -0.9989665150642395,
        0.045045506209135056
      ],
      "type": "VEC3"
    },
    {
      "bufferView": 1,
      "byteOffset": 4718312,
      "componentType": 5126,
      "count": 65532,
      "max": [
        0.9999960660934448,
        0.9999997019767761
      ],
      "min": [
        2.1785076569358353e-06,
        5.633294676954392e-06
      ],
      "type": "VEC2"
    },
    {
      "bufferView": 0,
      "byteOffset": 11652888,
      "componentType": 5125,
      "count": 158160,
      "type": "SCALAR"
    },
    {
      "bufferView": 2,
      "byteOffset": 15727704,
      "componentType": 5126,
      "count": 42707,
      "max": [
        1.0000054836273193,
        1.0000029802322388,
        0.1470661610364914
      ],
      "min": [
        -0.998070478439331,
        -1.0000079870224,
        0.0002045515866484493
      ],
      "type": "VEC3"
    },
    {
      "bufferView": 2,
      "byteOffset": 16240188,
      "componentType": 5126,
      "count": 42707,
      "max": [
        0.9773187637329102,
        0.86841881275177,
        0.9999998807907104
      ],
      "min": [
        -0.9435082674026489,
        -0.9989785552024841,
        0.044465571641922
      ],
      "type": "VEC3"
    },
    {
      "bufferView": 1,
      "byteOffset": 5242568,
      "componentType": 5126,
      "count": 42707,
      "max": [
        0.9999973773956299,
        0.9999970197677612
      ],
      "min": [
        0.0009687757701613009,
        4.268981228960911e-06
      ],
      "type": "VEC2"
    },
    {
      "bufferView": 0,
      "byteOffset": 12285528,
      "componentType": 5125,
      "count": 74346,
      "type": "SCALAR"
    }
  ],
  "asset": {
    "extras": {
      "author": "Šimon Ustal (https://sketchfab.com/simonustal)",
      "license": "CC-BY-4.0 (http://creativecommons.org/licenses/by/4.0/)",
      "source": "https://sketchfab.com/3d-models/mossygrassy-landscape-8f9a3ceee63747eea04c4b6ad2e5f5e2",
      "title": "Mossy/Grassy Landscape"
    },
    "generator": "Sketchfab-12.68.0",
    "version": "2.0"
  },
  "bufferViews": [
    {
      "buffer": 0,
      "byteLength": 12582912,
      "name": "floatBufferViews",
      "target": 34963
    },
    {
      "buffer": 0,
      "byteLength": 5584224,
      "byteOffset": 12582912,
      "byteStride": 8,
      "name": "floatBufferViews",
      "target": 34962
    },
    {
      "buffer": 0,
      "byteLength": 16752672,
      "byteOffset": 18167136,
      "byteStride": 12,
      "name": "floatBufferViews",
      "target": 34962
    }
  ],
  "buffers": [
    {
      "byteLength": 34919808,
      "uri": "scene.bin"
    }
  ],
  "images": [
    {
      "uri": "textures/Material.003_baseColor.png"
    },
    {
      "uri": "textures/Material.003_metallicRoughness.png"
    }
  ],
  "materials": [
    {
      "doubleSided": true,
      "name": "Material.003",
      "occlusionTexture": {
        "index": 1,
        "strength": 0.73324581717634
      },
      "pbrMetallicRoughness": {
        "baseColorTexture": {
          "index": 0
        },
        "metallicFactor": 0.3644036066237018,
        "metallicRoughnessTexture": {
          "index": 1
        },
        "roughnessFactor": 0.9577051494623774
      }
    }
  ],
  "meshes": [
    {
      "name": "Plane_Material.003_0",
      "primitives": [
        {
          "attributes": {
            "NORMAL": 1,
            "POSITION": 0,
            "TEXCOORD_0": 2
          },
          "indices": 3,
          "material": 0,
          "mode": 4
        }
      ]
    },
    {
      "name": "Plane_Material.003_0",
      "primitives": [
        {
          "attributes": {
            "NORMAL": 5,
            "POSITION": 4,
            "TEXCOORD_0": 6
          },
          "indices": 7,
          "material": 0,
          "mode": 4
        }
      ]
    },
    {
      "name": "Plane_Material.003_0",
      "primitives": [
        {
          "attributes": {
            "NORMAL": 9,
            "POSITION": 8,
            "TEXCOORD_0": 10
          },
          "indices": 11,
          "material": 0,
          "mode": 4
        }
      ]
    },
    {
      "name": "Plane_Material.003_0",
      "primitives": [
        {
          "attributes": {
            "NORMAL": 13,
            "POSITION": 12,
            "TEXCOORD_0": 14
          },
          "indices": 15,
          "material": 0,
          "mode": 4
        }
      ]
    },
    {
      "name": "Plane_Material.003_0",
      "primitives": [
        {
          "attributes": {
            "NORMAL": 17,
            "POSITION": 16,
            "TEXCOORD_0": 18
          },
          "indices": 19,
          "material": 0,
          "mode": 4
        }
      ]
    },
    {
      "name": "Plane_Material.003_0",
      "primitives": [
        {
          "attributes": {
            "NORMAL": 21,
            "POSITION": 20,
            "TEXCOORD_0": 22
          },
          "indices": 23,
          "material": 0,
          "mode": 4
        }
      ]
    },
    {
      "name": "Plane_Material.003_0",
      "primitives": [
        {
          "attributes": {
            "NORMAL": 25,
            "POSITION": 24,
            "TEXCOORD_0": 26
          },
          "indices": 27,
          "material": 0,
          "mode": 4
        }
      ]
    },
    {
      "name": "Plane_Material.003_0",
      "primitives": [
        {
          "attributes": {
            "NORMAL": 29,
            "POSITION": 28,
            "TEXCOORD_0": 30
          },
          "indices": 31,
          "material": 0,
          "mode": 4
        }
      ]
    },
    {
      "name": "Plane_Material.003_0",
      "primitives": [
        {
          "attributes": {
            "NORMAL": 33,
            "POSITION": 32,
            "TEXCOORD_0": 34
          },
          "indices": 35,
          "material": 0,
          "mode": 4
        }
      ]
    },
    {
      "name": "Plane_Material.003_0",
      "primitives": [
        {
          "attributes": {
            "NORMAL": 37,
            "POSITION": 36,
            "TEXCOORD_0": 38
          },
          "indices": 39,
          "material": 0,
          "mode": 4
        }
      ]
    },
    {
      "name": "Plane_Material.003_0",
      "primitives": [
        {
          "attributes": {
            "NORMAL": 41,
            "POSITION": 40,
            "TEXCOORD_0": 42
          },
          "indices": 43,
          "material": 0,
          "mode": 4
        }
      ]
    }
  ],
  "nodes": [
    {
      "children": [
        1
      ],
      "matrix": [
        1.0,
        0.0,
        0.0,
        0.0,
        0.0,
        2.220446049250313e-16,
        -1.0,
        0.0,
        0.0,
        1.0,
        2.220446049250313e-16,
        0.0,
        0.0,
        0.0,
        0.0,
        1.0
      ],
      "name": "Sketchfab_model"
    },
    {
      "children": [
        2
      ],
      "matrix": [
        1.0,
        0.0,
        0.0,
        0.0,
        0.0,
        0.0,
        1.0,
        0.0,
        0.0,
        -1.0,
        0.0,
        0.0,
        0.0,
        0.0,
        0.0,
        1.0
      ],
      "name": "e12e6d49effe4b6bb7ef685afb61b197.fbx"
    },
    {
      "children": [
        3,
        15,
        18
      ],
      "name": "RootNode"
    },
    {
      "children": [
        4,
        5,
        6,
        7,
        8,
        9,
        10,
        11,
        12,
        13,
        14
      ],
      "matrix": [
        773.3231811523027,
        -0.00025198070669035864,
        -1.5546866795562891e-12,
        0.0,
        1.376230914530238e-10,
        0.0004271335037895655,
        -773.3231811522257,
        0.0,
        0.0008406898999029064,
        2580.0585937494693,
        0.0014250568119381361,
        0.0,
        0.0,
        0.0,
        0.0,
        1.0
      ],
      "name": "Plane"
    },
    {
      "mesh": 0,
      "name": "Plane_Material.003_0"
    },
    {
      "mesh": 1,
      "name": "Plane_Material.003_0"
    },
    {
      "mesh": 2,
      "name": "Plane_Material.003_0"
    },
    {
      "mesh": 3,
      "name": "Plane_Material.003_0"
    },
    {
      "mesh": 4,
      "name": "Plane_Material.003_0"
    },
    {
      "mesh": 5,
      "name": "Plane_Material.003_0"
    },
    {
      "mesh": 6,
      "name": "Plane_Material.003_0"
    },
    {
      "mesh": 7,
      "name": "Plane_Material.003_0"
    },
    {
      "mesh": 8,
      "name": "Plane_Material.003_0"
    },
    {
      "mesh": 9,
      "name": "Plane_Material.003_0"
    },
    {
      "mesh": 10,
      "name": "Plane_Material.003_0"
    },
    {
      "children": [
        16
      ],
      "matrix": [
        -29.08647719990347,
        -5.518906457566863,
        -95.51711910171437,
        0.0,
        56.63930913109449,
        79.46723428563203,
        -21.83912397841966,
        0.0,
        77.11008775993375,
        -60.45246356562044,
        -19.98834696773717,
        0.0,
        407.6245422363281,
        590.38623046875,
        -100.54539489746094,
        1.0
      ],
      "name": "Lamp"
    },
    {
      "children": [
        17
      ],
      "matrix": [
        1.0,
        0.0,
        0.0,
        0.0,
        0.0,
        2.220446049250313e-16,
        1.0,
        0.0,
        0.0,
        -1.0,
        2.220446049250313e-16,
        0.0,
        0.0,
        0.0,
        0.0,
        1.0
      ],
      "name": "Object_16"
    },
    {
      "name": "Object_17"
    },
    {
      "children": [
        19
      ],
      "matrix": [
        -65.15583280329096,
        -44.52713576570858,
        -61.41703047373549,
        0.0,
        -32.40134137821245,
        89.53957451233616,
        -30.542088974418615,
        0.0,
        68.59205472129975,
        -1.0718647115348782e-05,
        -72.7676336239627,
        0.0,
        748.1131591796875,
        534.3665161132813,
        650.7639770507813,
        1.0
      ],
      "name": "Camera"
    },
    {
      "name": "Object_19"
    }
  ],
  "samplers": [
    {
      "magFilter": 9729,
      "minFilter": 9987,
      "wrapS": 10497,
      "wrapT": 10497
    }
  ],
  "scene": 0,
  "scenes": [
    {
      "name": "Sketchfab_Scene",
      "nodes": [
        0
      ]
    }
  ],
  "textures": [
    {
      "sampler": 0,
      "source": 0
    },
    {
      "sampler": 0,
      "source": 1
    }
  ]
}
