{
  "accessors": [
    {
      "bufferView": 2,
      "componentType": 5126,
      "count": 12258,
      "max": [
        1.1956981420516968,
        4.441143989562988,
        2.120725393295288
      ],
      "min": [
        -1.195668339729309,
        -0.000615239143371582,
        -3.3555169105529785
      ],
      "type": "VEC3"
    },
    {
      "bufferView": 2,
      "byteOffset": 147096,
      "componentType": 5126,
      "count": 12258,
      "max": [
        0.9998686909675598,
        0.9999966025352478,
        0.9999783039093018
      ],
      "min": [
        -0.9998686909675598,
        -0.9999918341636658,
        -0.9992979168891907
      ],
      "type": "VEC3"
    },
    {
      "bufferView": 3,
      "componentType": 5126,
      "count": 12258,
      "max": [
        0.9998946785926819,
        0.9998155832290649,
        0.9999345541000366,
        1.0
      ],
      "min": [
        -1.0,
        -0.9994487166404724,
        -0.9998847246170044,
        -1.0
      ],
      "type": "VEC4"
    },
    {
      "bufferView": 1,
      "componentType": 5126,
      "count": 12258,
      "max": [
        0.9903653860092163,
        0.9908449649810791
      ],
      "min": [
        0.009765330702066422,
        0.014488458633422852
      ],
      "type": "VEC2"
    },
    {
      "bufferView": 1,
      "byteOffset": 98064,
      "componentType": 5126,
      "count": 12258,
      "max": [
        0.9903653860092163,
        0.9908449649810791
      ],
      "min": [
        0.009765330702066422,
        0.014488458633422852
      ],
      "type": "VEC2"
    },
    {
      "bufferView": 1,
      "byteOffset": 196128,
      "componentType": 5126,
      "count": 12258,
      "max": [
        0.9903653860092163,
        0.9908449649810791
      ],
      "min": [
        0.009765330702066422,
        0.014488458633422852
      ],
      "type": "VEC2"
    },
    {
      "bufferView": 1,
      "byteOffset": 294192,
      "componentType": 5126,
      "count": 12258,
      "max": [
        0.9903653860092163,
        0.9908449649810791
      ],
      "min": [
        0.009765330702066422,
        0.014488458633422852
      ],
      "type": "VEC2"
    },
    {
      "bufferView": 1,
      "byteOffset": 392256,
      "componentType": 5126,
      "count": 12258,
      "max": [
        0.9903653860092163,
        0.9908449649810791
      ],
      "min": [
        0.009765330702066422,
        0.014488458633422852
      ],
      "type": "VEC2"
    },
    {
      "bufferView": 0,
      "componentType": 5125,
      "count": 62484,
      "type": "SCALAR"
    }
  ],
  "asset": {
    "extras": {
      "author": "alfredonicolasalarcon (https://sketchfab.com/alfredonicolasalarcon)",
      "license": "CC-BY-4.0 (http://creativecommons.org/licenses/by/4.0/)",
      "source": "https://sketchfab.com/3d-models/duck-1ef90928c6994bb28d8069069dd5adce",
      "title": "Duck"
    },
    "generator": "Sketchfab-12.82.2",
    "version": "2.0"
  },
  "bufferViews": [
    {
      "buffer": 0,
      "byteLength": 249936,
      "name": "floatBufferViews",
      "target": 34963
    },
    {
      "buffer": 0,
      "byteLength": 490320,
      "byteOffset": 249936,
      "byteStride": 8,
      "name": "floatBufferViews",
      "target": 34962
    },
    {
      "buffer": 0,
      "byteLength": 294192,
      "byteOffset": 740256,
      "byteStride": 12,
      "name": "floatBufferViews",
      "target": 34962
    },
    {
      "buffer": 0,
      "byteLength": 196128,
      "byteOffset": 1034448,
      "byteStride": 16,
      "name": "floatBufferViews",
      "target": 34962
    }
  ],
  "buffers": [
    {
      "byteLength": 1230576,
      "uri": "scene.bin"
    }
  ],
  "extensionsRequired": [
    "KHR_materials_pbrSpecularGlossiness"
  ],
  "extensionsUsed": [
    "KHR_materials_pbrSpecularGlossiness"
  ],
  "images": [
    {
      "uri": "material_0_diffuse.png"
    },
    {
      "uri": "material_0_specularGlossiness.png"
    },
    {
      "uri": "material_0_normal.png"
    },
    {
      "uri": "material_0_occlusion.png"
    }
  ],
  "materials": [
    {
      "doubleSided": true,
      "extensions": {
        "KHR_materials_pbrSpecularGlossiness": {
          "diffuseFactor": [
            1.0,
            1.0,
            1.0,
            1.0
          ],
          "diffuseTexture": {
            "index": 0
          },
          "glossinessFactor": 1.0,
          "specularFactor": [
            0.5,
            0.5,
            0.5
          ],
          "specularGlossinessTexture": {
            "index": 1
          }
        }
      },
      "name": "material_0",
      "normalTexture": {
        "index": 2
      },
      "occlusionTexture": {
        "index": 3
      }
    }
  ],
  "meshes": [
    {
      "name": "Object_0",
      "primitives": [
        {
          "attributes": {
            "NORMAL": 1,
            "POSITION": 0,
            "TANGENT": 2,
            "TEXCOORD_0": 3,
            "TEXCOORD_1": 4,
            "TEXCOORD_2": 5,
            "TEXCOORD_3": 6,
            "TEXCOORD_4": 7
          },
          "indices": 8,
          "material": 0,
          "mode": 4
        }
      ]
    }
  ],
  "nodes": [
    {
      "children": [
        1
      ],
      "matrix": [
        1.0,
        0.0,
        0.0,
        0.0,
        0.0,
        2.220446049250313e-16,
        -1.0,
        0.0,
        0.0,
        1.0,
        2.220446049250313e-16,
        0.0,
        0.0,
        0.0,
        0.0,
        1.0
      ],
      "name": "Sketchfab_model"
    },
    {
      "children": [
        2
      ],
      "name": "root"
    },
    {
      "children": [
        3
      ],
      "matrix": [
        1.0,
        0.0,
        0.0,
        0.0,
        0.0,
        2.220446049250313e-16,
        1.0,
        0.0,
        0.0,
        -1.0,
        2.220446049250313e-16,
        0.0,
        0.0,
        0.0,
        0.0,
        1.0
      ],
      "name": "GLTF_SceneRootNode"
    },
    {
      "children": [
        4
      ],
      "matrix": [
        0.009999999776482582,
        0.0,
        0.0,
        0.0,
        0.0,
        0.009999999776482582,
        0.0,
        0.0,
        0.0,
        0.0,
        0.009999999776482582,
        0.0,
        0.0,
        0.0,
        0.0,
        1.0
      ],
      "name": "RootNode.0_0"
    },
    {
      "children": [
        5
      ],
      "name": "duck.1_1"
    },
    {
      "mesh": 0,
      "name": "Object_5"
    }
  ],
  "samplers": [
    {
      "magFilter": 9729,
      "minFilter": 9987,
      "wrapS": 10497,
      "wrapT": 10497
    }
  ],
  "scene": 0,
  "scenes": [
    {
      "name": "Sketchfab_Scene",
      "nodes": [
        0
      ]
    }
  ],
  "textures": [
    {
      "sampler": 0,
      "source": 0
    },
    {
      "sampler": 0,
      "source": 1
    },
    {
      "sampler": 0,
      "source": 2
    },
    {
      "sampler": 0,
      "source": 3
    }
  ]
}
