{
  "accessors": [
    {
      "bufferView": 2,
      "componentType": 5126,
      "count": 11736,
      "max": [
        123.6525650024414,
        318.21881103515625,
        171.39797973632813
      ],
      "min": [
        -48.46387481689453,
        -0.6926506161689758,
        -168.2063446044922
      ],
      "type": "VEC3"
    },
    {
      "bufferView": 2,
      "byteOffset": 140832,
      "componentType": 5126,
      "count": 11736,
      "max": [
        0.9998906254768372,
        0.9998540878295898,
        0.9999874830245972
      ],
      "min": [
        -0.9998937249183655,
        -0.9999552965164185,
        -0.9999548196792603
      ],
      "type": "VEC3"
    },
    {
      "bufferView": 1,
      "componentType": 5126,
      "count": 11736,
      "max": [
        0.9857400059700012,
        0.9840800166130066
      ],
      "min": [
        0.01281999982893467,
        0.008539974689483643
      ],
      "type": "VEC2"
    },
    {
      "bufferView": 1,
      "byteOffset": 93888,
      "componentType": 5126,
      "count": 11736,
      "max": [
        0.9857400059700012,
        0.9840800166130066
      ],
      "min": [
        0.01281999982893467,
        0.008539974689483643
      ],
      "type": "VEC2"
    },
    {
      "bufferView": 1,
      "byteOffset": 187776,
      "componentType": 5126,
      "count": 11736,
      "max": [
        0.9857400059700012,
        0.9840800166130066
      ],
      "min": [
        0.01281999982893467,
        0.008539974689483643
      ],
      "type": "VEC2"
    },
    {
      "bufferView": 0,
      "componentType": 5125,
      "count": 66900,
      "type": "SCALAR"
    },
    {
      "bufferView": 2,
      "byteOffset": 281664,
      "componentType": 5126,
      "count": 11059,
      "max": [
        89.0943832397461,
        314.12139892578125,
        166.09739685058594
      ],
      "min": [
        -30.73999786376953,
        3.1215267181396484,
        -205.94000244140625
      ],
      "type": "VEC3"
    },
    {
      "bufferView": 2,
      "byteOffset": 414372,
      "componentType": 5126,
      "count": 11059,
      "max": [
        0.9999650716781616,
        0.9998881220817566,
        0.9999940395355225
      ],
      "min": [
        -0.9999926686286926,
        -0.9976534843444824,
        -0.9997984170913696
      ],
      "type": "VEC3"
    },
    {
      "bufferView": 1,
      "byteOffset": 281664,
      "componentType": 5126,
      "count": 11059,
      "max": [
        0.988860011100769,
        0.9990599751472473
      ],
      "min": [
        0.00013000000035390258,
        0.0015199780464172363
      ],
      "type": "VEC2"
    },
    {
      "bufferView": 1,
      "byteOffset": 370136,
      "componentType": 5126,
      "count": 11059,
      "max": [
        0.988860011100769,
        0.9990599751472473
      ],
      "min": [
        0.00013000000035390258,
        0.0015199780464172363
      ],
      "type": "VEC2"
    },
    {
      "bufferView": 1,
      "byteOffset": 458608,
      "componentType": 5126,
      "count": 11059,
      "max": [
        0.988860011100769,
        0.9990599751472473
      ],
      "min": [
        0.00013000000035390258,
        0.0015199780464172363
      ],
      "type": "VEC2"
    },
    {
      "bufferView": 0,
      "byteOffset": 267600,
      "componentType": 5125,
      "count": 39177,
      "type": "SCALAR"
    }
  ],
  "asset": {
    "extras": {
      "author": "nikita (https://sketchfab.com/tungpv90)",
      "license": "CC-BY-4.0 (http://creativecommons.org/licenses/by/4.0/)",
      "source": "https://sketchfab.com/3d-models/horse-29a679df4a014b55a9476b520b430895",
      "title": "Horse"
    },
    "generator": "Sketchfab-12.67.0",
    "version": "2.0"
  },
  "bufferViews": [
    {
      "buffer": 0,
      "byteLength": 424308,
      "name": "floatBufferViews",
      "target": 34963
    },
    {
      "buffer": 0,
      "byteLength": 547080,
      "byteOffset": 424308,
      "byteStride": 8,
      "name": "floatBufferViews",
      "target": 34962
    },
    {
      "buffer": 0,
      "byteLength": 547080,
      "byteOffset": 971388,
      "byteStride": 12,
      "name": "floatBufferViews",
      "target": 34962
    }
  ],
  "buffers": [
    {
      "byteLength": 1518468,
      "uri": "scene.bin"
    }
  ],
  "extensionsRequired": [
    "KHR_materials_pbrSpecularGlossiness"
  ],
  "extensionsUsed": [
    "KHR_materials_pbrSpecularGlossiness"
  ],
  "images": [
    {
      "uri": "textures/material_diffuse.png"
    },
    {
      "uri": "textures/specular.png"
    },
    {
      "uri": "textures/material_1_diffuse.png"
    },
    {
      "uri": "textures/material_1_specularGlossiness.png"
    }
  ],
  "materials": [
    {
      "doubleSided": true,
      "extensions": {
        "KHR_materials_pbrSpecularGlossiness": {
          "diffuseFactor": [
            1.0,
            1.0,
            1.0,
            1.0
          ],
          "diffuseTexture": {
            "index": 0
          },
          "glossinessFactor": 1.0,
          "specularFactor": [
            0.0,
            0.0,
            0.0
          ],
          "specularGlossinessTexture": {
            "index": 1
          }
        }
      },
      "name": "material"
    },
    {
      "alphaMode": "MASK",
      "doubleSided": true,
      "extensions": {
        "KHR_materials_pbrSpecularGlossiness": {
          "diffuseFactor": [
            1.0,
            1.0,
            1.0,
            1.0
          ],
          "diffuseTexture": {
            "index": 2
          },
          "glossinessFactor": 1.0,
          "specularFactor": [
            1.0,
            1.0,
            1.0
          ],
          "specularGlossinessTexture": {
            "index": 3
          }
        }
      },
      "name": "material_1"
    }
  ],
  "meshes": [
    {
      "name": "Object_0",
      "primitives": [
        {
          "attributes": {
            "NORMAL": 1,
            "POSITION": 0,
            "TEXCOORD_0": 2,
            "TEXCOORD_1": 3,
            "TEXCOORD_2": 4
          },
          "indices": 5,
          "material": 0,
          "mode": 4
        }
      ]
    },
    {
      "name": "Object_1",
      "primitives": [
        {
          "attributes": {
            "NORMAL": 7,
            "POSITION": 6,
            "TEXCOORD_0": 8,
            "TEXCOORD_1": 9,
            "TEXCOORD_2": 10
          },
          "indices": 11,
          "material": 1,
          "mode": 4
        }
      ]
    }
  ],
  "nodes": [
    {
      "children": [
        1
      ],
      "matrix": [
        1.0,
        0.0,
        0.0,
        0.0,
        0.0,
        2.220446049250313e-16,
        -1.0,
        0.0,
        0.0,
        1.0,
        2.220446049250313e-16,
        0.0,
        0.0,
        0.0,
        0.0,
        1.0
      ],
      "name": "Sketchfab_model"
    },
    {
      "children": [
        2
      ],
      "name": "root"
    },
    {
      "children": [
        3
      ],
      "matrix": [
        1.0,
        0.0,
        0.0,
        0.0,
        0.0,
        2.220446049250313e-16,
        1.0,
        0.0,
        0.0,
        -1.0,
        2.220446049250313e-16,
        0.0,
        0.0,
        0.0,
        0.0,
        1.0
      ],
      "name": "GLTF_SceneRootNode"
    },
    {
      "children": [
        4
      ],
      "name": "root_1"
    },
    {
      "children": [
        5,
        7
      ],
      "matrix": [
        0.0009074869227595876,
        4.261386543903978e-13,
        -0.00042008016756876066,
        0.0,
        3.7499244780083417e-13,
        0.0010000000474974513,
        1.8245075019360623e-12,
        0.0,
        0.00042008016756876066,
        -1.8132435026684888e-12,
        0.0009074869227595876,
        0.0,
        -0.10754076391458511,
        4.641914075342868e-10,
        0.02368338033556938,
        1.0
      ],
      "name": "node_id35_2"
    },
    {
      "children": [
        6
      ],
      "matrix": [
        2.2875185378729063e-07,
        0.0,
        1.356873989105205,
        0.0,
        0.0,
        1.3568741083145142,
        0.0,
        0.0,
        -1.356873989105205,
        0.0,
        2.2875185378729063e-07,
        0.0,
        -23.434612274169922,
        -215.4215087890625,
        204.98976135253906,
        1.0
      ],
      "name": "node_id31_0"
    },
    {
      "mesh": 0,
      "name": "Object_6"
    },
    {
      "children": [
        8
      ],
      "matrix": [
        2.2875185378729063e-07,
        0.0,
        1.356873989105205,
        0.0,
        0.0,
        1.3568741083145142,
        0.0,
        0.0,
        -1.356873989105205,
        0.0,
        2.2875185378729063e-07,
        0.0,
        -23.434612274169922,
        -215.4215087890625,
        204.98976135253906,
        1.0
      ],
      "name": "node_id33_3"
    },
    {
      "mesh": 1,
      "name": "Object_8"
    }
  ],
  "samplers": [
    {
      "magFilter": 9729,
      "minFilter": 9987,
      "wrapS": 10497,
      "wrapT": 10497
    }
  ],
  "scene": 0,
  "scenes": [
    {
      "name": "Sketchfab_Scene",
      "nodes": [
        0
      ]
    }
  ],
  "textures": [
    {
      "sampler": 0,
      "source": 0
    },
    {
      "sampler": 0,
      "source": 1
    },
    {
      "sampler": 0,
      "source": 2
    },
    {
      "sampler": 0,
      "source": 3
    }
  ]
}
